<svg width="2553" height="2744" viewBox="0 0 2553 2744" fill="none" xmlns="http://www.w3.org/2000/svg">
<g clip-path="url(#clip0_76_2)">
<path d="M879.106 1132C879.106 1180.86 918.869 1220.62 967.735 1220.62C1016.6 1220.62 1056.36 1180.86 1056.36 1132C1056.36 1083.13 1016.6 1043.37 967.735 1043.37C918.869 1043.37 879.106 1083.13 879.106 1132Z" fill="white"/>
<path d="M2081.11 1891.29C1866.96 2152.85 1494.72 2266.87 1171.34 2168.18C831.199 2064.23 572.976 1733.68 571.06 1398.83V1389.25L480.035 1293.44L583.516 1207.21L584.953 1198.1C630.944 885.764 888.209 610.31 1210.63 528.392C1536.4 445.517 1892.83 569.112 2097.88 835.943L2101.71 841.212L2553 580.609L2537.67 555.219C2299.57 171.021 1806.12 0 1419.03 0H1411.36C1391.24 0 1371.12 0.958101 1351.48 1.9162L1321.77 3.35335C1314.11 3.35335 1305.96 3.8324 1298.3 4.7905L1283.45 6.22765C1269.55 7.6648 1255.66 9.10196 1240.81 11.0182L1227.4 12.4553C1220.21 12.9344 1213.02 13.8925 1205.84 14.8506L1187.15 17.7249C1180.92 18.683 1174.7 19.6411 1168.47 21.0782L1149.78 24.4316C1137.81 26.3478 1125.83 28.743 1110.98 31.6173C1067.86 40.2402 1032.41 48.3841 1000.31 57.9651H997.917L992.647 59.8813C985.94 61.7975 979.233 64.1927 973.005 66.588L945.698 75.6899C376.076 262.52 -3.83227 779.894 0.000340583 1362.9C-3.3532 1861.11 281.698 2337.29 726.76 2576.33C935.158 2688.43 1167.51 2744 1399.38 2744C1683.96 2744 1968.53 2660.65 2209.98 2494.89C2239.68 2475.25 2270.35 2452.26 2308.19 2421.12C2321.61 2410.1 2334.06 2398.6 2347 2387.11L2356.1 2378.96C2379.57 2357.41 2402.57 2335.37 2424.13 2311.9L2428.92 2307.11C2431.79 2304.23 2435.15 2301.36 2438.98 2297.05C2473.47 2258.72 2506.05 2216.57 2536.23 2172.97L2545.81 2159.08L2081.59 1890.81L2081.11 1891.29Z" fill="white"/>
</g>
<defs>
<clipPath id="clip0_76_2">
<rect width="2553" height="2744" fill="white"/>
</clipPath>
</defs>
</svg>
